{"title":"Vacation.2015.HD-TS.XVID.AC3.HQ.Hive-CM8","uid":12327179,"size":1483883354,"categoryP":"video","categoryS":"movies","magnet":"?xt=urn:btih:e5e1cbaed4df86a09b7f0fde7309033783993e68&amp;dn=Vacation.2015.HD-TS.XVID.AC3.HQ.Hive-CM8&amp;tr=udp%3A%2F%2Ftracker.openbittorrent.com%3A80&amp;tr=udp%3A%2F%2Fopen.demonii.com%3A1337&amp;tr=udp%3A%2F%2Ftracker.coppersurfer.tk%3A6969&amp;tr=udp%3A%2F%2Fexodus.desync.com%3A6969","seeders":0,"leechers":0,"uploader":"TvTeam","files":4,"time":1441133361,"description":"------------------------------------------------------------------------\n\n &lt;a href=&quot; https://www.torrenting.com&quot; rel=&quot;nofollow&quot; target=&quot;_NEW&quot;&gt; https://www.torrenting.com&lt;/a&gt;\n\nSign up is OPEN - for time being. Come and have fun\n\n.......................................................................................................................[center][img]http://img905.imageshack.us/img905/5753/10yfM8.jpg[/img]\n\n \n[color=blue][size=4][b]Vacation.2015.HD-TS.XVID.AC3.HQ.Hive-CM8[/b][/size][/color]\n\nThx Hive\n\nCM8 Doing It Right The First Time\n\nSources:\n\nVideo: Latino DVD-R HDCAM\nAudio: Sweet Line Big Thx to S4NDM4N\n\nEncode:\n\nLatino Cam was great and full,only needed fixing ar and perspective on the right side which is fixed now.\nDecided not to additional rotate the video to get it perfectly straight, in doing that it would have lost 60 lines and heads would have been chopped, left it as it was, better this way\nVideo was already very bright, only did minor changes and added a bit sharpness.\n\nAudio was nice line from S4NDM4N, a week later than i wanted it, but it is what it is and its free for your pleasure\naudio had a bit hiss and noise in the back here and there, cleaned it best i could without going over, played a good day with it, will do just fine.\nlipsynced to my video\n\ngot very nice\nenjoy\n\nVideo: 720x288 @bitrate 1800 2pass\nAudio: English Line AC3 2.0 Stereo\nSample: yes included\n\n\n &lt;a href=&quot;\nhttp://www.imdb.com/title/tt1524930/&quot; rel=&quot;nofollow&quot; target=&quot;_NEW&quot;&gt;\nhttp://www.imdb.com/title/tt1524930/&lt;/a&gt;\n\n\nGeneral\nComplete name                  : Vacation.2015.HD-TS.XVID.AC3.HQ.Hive-CM8.avi\nFormat                         : AVI\nFormat/Info                    : Audio Video Interleave\nFile size                      : 1.37 GiB\nDuration                       : 1h 34mn\nOverall bit rate               : 2 068 Kbps\nWriting application            : Nandub v1.0rc2\nWriting library                : Nandub build 1853/release\n\nVideo\nID                             : 0\nFormat                         : MPEG-4 Visual\nFormat profile                 : Advanced Simple@L5\nFormat settings, BVOP          : 2\nFormat settings, QPel          : Yes\nFormat settings, GMC           : No warppoints\nFormat settings, Matrix        : Default (H.263)\nMuxing mode                    : Packed bitstream\nCodec ID                       : XVID\nCodec ID/Hint                  : XviD\nDuration                       : 1h 34mn\nBit rate                       : 1 800 Kbps\nWidth                          : 720 pixels\nHeight                         : 288 pixels\nDisplay aspect ratio           : 2.500\nFrame rate                     : 29.970 fps\nColor space                    : YUV\nChroma subsampling             : 4:2:0\nBit depth                      : 8 bits\nScan type                      : Progressive\nCompression mode               : Lossy\nBits/(Pixel*Frame)             : 0.290\nStream size                    : 1.19 GiB (87%)\nWriting library                : XviD 1.2.1 (UTC 2008-12-04)\n\nAudio\nID                             : 1\nFormat                         : AC-3\nFormat/Info                    : Audio Coding 3\nMode extension                 : CM (complete main)\nFormat settings, Endianness    : Big\nCodec ID                       : 2000\nDuration                       : 1h 34mn\nBit rate mode                  : Constant\nBit rate                       : 256 Kbps\nChannel(s)                     : 2 channels\nChannel positions              : Front: L R\nSampling rate                  : 48.0 KHz\nBit depth                      : 16 bits\nCompression mode               : Lossy\nDelay relative to video        : 755ms\nStream size                    : 174 MiB (12%)\nAlignment                      : Split accross interleaves\nInterleave, duration           : 33 ms (1.00 video frame)\nInterleave, preload duration   : 500 ms\n\n\nScreens \n\n[img]http://img537.imageshack.us/img537/8362/W57qb6.png[/img]\n[img]http://img537.imageshack.us/img537/3598/fHM5bn.png[/img]\n[img]http://img537.imageshack.us/img537/1183/IMzDwW.png[/img]\n[img]http://img661.imageshack.us/img661/6391/ivMxQf.png[/img]\n[img]http://img661.imageshack.us/img661/328/vHRnKO.png[/img]\n[img]http://img673.imageshack.us/img673/2551/DVaADW.png[/img]\n\n\n\nPlot\n\nRusty Griswold takes his own family on a road trip to &quot;Walley World&quot; in order to spice things up \nwith his wife and reconnect with his sons.\n\nCast\n\nEd Helms            ... Rusty Griswold\nChristina Applegate ... Debbie Griswold\nChris Hemsworth     ... Stone Crandall\nLeslie Mann \t    ... Audrey Crandall\nChevy Chase \t    ... Clark Griswold\nBeverly D'Angelo    ... Ellen Griswold\nCharlie Day \t    ... Chad \n\n\nGreetz\n\nSugarB,iNCOMiNG,Izzy,MenaceIISociety,jiinx,SiMPLE,CherryBomb\nranbailey,ViSiON,YanKeeS,COPYxRIGHT,THC,VAiN,ACAB,DRs\nLKRG,Kingstoner,ACAB,SiMPLE,TiTAN\nUnevano,BigVik,Rapeseed,SAFC,goldadvance,KaN1vE,Pinnz,Wayne,HiGH\nSeeN,jtr,Limey,ICONiK,TED,rkofan,mrtoke09 (ya whinging old man here ya go lol )\nMr Hive\n\n\nLOOKING FOR ANYTHING YOU WANT TO LOOK AND SOUND BETTER\n\nCOME FIND US WE DONT BITE \n&lt;a class=&quot;__cf_email__&quot; href=&quot;/cdn-cgi/l/email-protection&quot; data-cfemail=&quot;13505e2b537b66607b7e727a7f3d7e76&quot;&gt;[email&amp;#160;protected]&lt;/a&gt;&lt;script data-cfhash='f9e31' type=&quot;text/javascript&quot;&gt;\n/* &lt;![CDATA[ */!function(){try{var t=&quot;currentScript&quot;in document?document.currentScript:function(){for(var t=document.getElementsByTagName(&quot;script&quot;),e=t.length;e--;)if(t[e].getAttribute(&quot;data-cfhash&quot;))return t[e]}();if(t&amp;&amp;t.previousSibling){var e,r,n,i,c=t.previousSibling,a=c.getAttribute(&quot;data-cfemail&quot;);if(a){for(e=&quot;&quot;,r=parseInt(a.substr(0,2),16),n=2;a.length-n;n+=2)i=parseInt(a.substr(n,2),16)^r,e+=String.fromCharCode(i);e=document.createTextNode(e),c.parentNode.replaceChild(e,c)}t.parentNode.removeChild(t);}}catch(u){}}()/* ]]&gt; */&lt;/script&gt;[/center]","torrent":{"xt":"urn:btih:e5e1cbaed4df86a09b7f0fde7309033783993e68","amp;dn":"Vacation.2015.HD-TS.XVID.AC3.HQ.Hive-CM8","amp;tr":["udp%3A%2F%2Ftracker.openbittorrent.com%3A80","udp%3A%2F%2Fopen.demonii.com%3A1337","udp%3A%2F%2Ftracker.coppersurfer.tk%3A6969","udp%3A%2F%2Fexodus.desync.com%3A6969"],"infoHash":"e5e1cbaed4df86a09b7f0fde7309033783993e68","infoHashBuffer":{"type":"Buffer","data":[229,225,203,174,212,223,134,160,155,127,15,222,115,9,3,55,131,153,62,104]},"announce":[],"urlList":[]}}